<svg width="32" height="32" viewBox="0 0 32 32" fill="none" xmlns="http://www.w3.org/2000/svg">
  <rect x="0" y="0" width="32" height="32" rx="8" fill="white" />
  
  <g transform="translate(4, 4)">
    <path d="M12.077 2.46302C12.3208 2.13203 12.8135 2.1354 13.0528 2.46976L18.4043 9.78631C18.7046 10.1968 18.8244 10.7067 18.7415 11.2098L17.3858 19.4403C17.2825 20.0676 16.7425 20.5263 16.1074 20.5263H7.91555C7.27896 20.5263 6.73833 20.0653 6.63691 19.436L5.25755 11.1985C5.17449 10.7027 5.29209 10.1998 5.58475 9.79289L11.0572 2.47592C11.3027 2.13789 11.8125 2.13157 12.0651 2.46294L12.0711 2.47079L12.077 2.46302Z" 
          stroke="#0f172a" stroke-width="2" stroke-linecap="round" stroke-linejoin="round"/>
    <path d="M12 21V12" 
          stroke="#0f172a" stroke-width="2" stroke-linecap="round"/>
  </g>
</svg>